<svg width="280" height="85" viewBox="0 0 280 85" fill="none" xmlns="http://www.w3.org/2000/svg">
<g clip-path="url(#clip0_1230_13414)">
<path fill-rule="evenodd" clip-rule="evenodd" d="M55.3063 3.29472L55.5731 3.21337C55.5526 2.94898 55.5731 2.84729 55.3063 2.84729H54.8549C54.8959 3.35573 54.9369 3.13202 55.3063 3.29472Z" fill="#009EDB"/>
<path fill-rule="evenodd" clip-rule="evenodd" d="M56.5993 3.76251V3.94554C56.9892 4.04723 56.7634 4.12858 57.0507 4.12858C57.338 4.12858 57.3175 3.96588 57.3175 3.68116C57.0713 3.62014 57.1533 3.57947 56.9481 3.57947C56.866 3.57947 56.8455 3.68116 56.5787 3.76251H56.5993Z" fill="#009EDB"/>
<path fill-rule="evenodd" clip-rule="evenodd" d="M54.4034 10.3518H54.7523V9.98572H54.4034V10.3518Z" fill="#009EDB"/>
<path fill-rule="evenodd" clip-rule="evenodd" d="M53.6646 10.3519C53.6646 10.4536 54.1161 10.8806 54.4034 10.901C54.3008 10.4332 54.0956 10.3925 53.7672 10.1688C53.7672 10.1688 53.6851 10.3315 53.6851 10.3519H53.6646Z" fill="#009EDB"/>
<path fill-rule="evenodd" clip-rule="evenodd" d="M55.2448 10.6162L55.9425 11.0636L56.3119 10.9823C56.3119 10.3721 55.5937 10.0264 54.9985 9.98572L55.2448 10.5958V10.6162Z" fill="#009EDB"/>
<path fill-rule="evenodd" clip-rule="evenodd" d="M45.4354 11.6332L45.7842 11.7145L45.9074 11.3281L45.4354 11.2671V11.6332Z" fill="#009EDB"/>
<path fill-rule="evenodd" clip-rule="evenodd" d="M45.9895 11.8975C46.1947 11.8975 46.4409 11.9178 46.4409 11.7144C46.4409 11.6331 46.2357 11.4297 46.1742 11.4297C45.9689 11.4297 45.9895 11.6737 45.9895 11.8975Z" fill="#009EDB"/>
<path fill-rule="evenodd" clip-rule="evenodd" d="M54.4855 11.6332V11.8162L54.8344 11.9586L55.0601 11.8976L54.8344 11.3688C54.5676 11.3891 54.465 11.3688 54.465 11.6535L54.4855 11.6332Z" fill="#009EDB"/>
<path fill-rule="evenodd" clip-rule="evenodd" d="M8.31132 22.0663V22.351L8.22923 24.0797C8.33184 24.0187 9.44002 22.3917 9.66576 22.1273C10.1172 21.5172 10.7945 20.9274 11.3691 20.4393C12.6414 19.3614 13.9343 18.5072 15.1246 17.3276C16.3969 16.0464 20.5218 11.1857 20.686 9.2536C20.0088 9.72137 18.8801 10.9213 18.1208 11.5314C17.4025 12.1009 16.007 13.0364 15.1656 13.5245C14.3037 14.0126 13.1545 15.0091 12.5183 15.721C12.1899 16.087 10.384 18.4665 10.343 18.4869C10.3635 17.5513 11.0407 16.0667 11.3075 15.1515C11.6153 14.1143 11.9437 12.6703 12.0668 11.5314C12.3336 9.05023 13.4828 7.01647 14.4474 5.20642C13.647 5.38946 11.9232 7.34187 11.4101 8.01301C10.4661 9.2536 9.91202 10.3315 9.2348 11.7958C8.63967 13.0974 8.16767 14.7651 8.04454 16.5548C7.90088 18.4462 8.31132 20.0529 8.31132 22.046V22.0663Z" fill="#009EDB"/>
<path fill-rule="evenodd" clip-rule="evenodd" d="M56.4967 13.5449L56.4146 14.0127C56.5377 14.0737 56.7224 14.1957 56.866 14.1957C57.0713 14.1957 57.0507 13.9313 57.0507 13.7483C56.3735 13.6669 56.784 13.0771 56.1273 13.0161C56.1273 13.4432 56.1273 13.4635 56.4967 13.5652V13.5449Z" fill="#009EDB"/>
<path fill-rule="evenodd" clip-rule="evenodd" d="M12.4362 14.3787C13.2981 13.4635 14.55 12.7517 15.5966 11.9585C16.8484 11.023 17.4846 10.4128 18.4696 9.25359C19.2084 8.37907 20.173 6.99611 20.8502 6.04025C21.6095 4.94202 22.6356 3.84378 23.3128 2.8269C22.2251 2.90825 17.1768 6.2843 16.3969 7.05713C15.2888 8.15536 12.4362 12.3856 12.4362 14.3583V14.3787Z" fill="#009EDB"/>
<path fill-rule="evenodd" clip-rule="evenodd" d="M36.5699 13.7482V13.9923L36.8367 14.0533L37.0419 13.9923L36.9393 13.6262L36.5699 13.7482Z" fill="#009EDB"/>
<path fill-rule="evenodd" clip-rule="evenodd" d="M86.1097 14.3787C85.966 12.528 83.3187 8.17574 82.1695 7.15886C79.9121 5.20645 77.942 4.27092 75.2331 2.84729C75.2331 2.88797 79.5632 8.68418 79.9942 9.2333C80.8766 10.3722 81.6975 11.0637 82.8672 11.9382C83.4418 12.3653 83.9549 12.6907 84.5295 13.1178C85.0836 13.5449 85.5556 13.9923 86.1097 14.3787Z" fill="#009EDB"/>
<path fill-rule="evenodd" clip-rule="evenodd" d="M57.0507 14.1956L57.1328 14.5617H57.5843C57.5843 14.1956 57.5433 14.2159 57.3996 14.0126L57.0302 14.1956H57.0507Z" fill="#009EDB"/>
<path fill-rule="evenodd" clip-rule="evenodd" d="M58.241 14.7447V14.5617H58.0563V14.277H57.7895V14.5617C57.7895 14.9074 58.0563 14.8464 58.241 14.7447Z" fill="#009EDB"/>
<path fill-rule="evenodd" clip-rule="evenodd" d="M58.241 14.7448C58.241 15.1718 58.282 15.4769 58.6924 15.4769C58.7745 15.4769 58.8771 15.3752 58.8771 15.2939C58.8771 15.1515 58.6719 14.8871 58.6104 14.7448H58.241Z" fill="#009EDB"/>
<path fill-rule="evenodd" clip-rule="evenodd" d="M42.2339 20.3173C42.2339 20.541 42.3776 20.6834 42.6033 20.6834H42.8701V20.5004H43.5063C43.4037 20.1139 43.3011 20.1546 42.9522 20.3173C42.9112 20.175 42.8496 20.0326 42.6854 20.0326C42.5418 20.0326 42.2339 20.175 42.2339 20.3173Z" fill="#009EDB"/>
<path fill-rule="evenodd" clip-rule="evenodd" d="M67.4142 21.6189C67.4758 21.8019 68.4609 23.1035 68.4609 22.3307C68.4609 22.229 67.8863 21.4562 67.4758 21.4155L67.4142 21.5986V21.6189Z" fill="#009EDB"/>
<path fill-rule="evenodd" clip-rule="evenodd" d="M68.5635 22.6154C68.5635 22.7985 68.7482 22.7781 68.9329 22.7985V22.4324C68.7482 22.4324 68.5635 22.4324 68.5635 22.6154Z" fill="#009EDB"/>
<path fill-rule="evenodd" clip-rule="evenodd" d="M88.1208 18.4055C87.9771 18.3038 86.4175 16.2091 85.9865 15.782C85.2272 14.9888 84.3037 14.1346 83.3597 13.5652C82.3952 12.9957 81.3896 12.2839 80.4661 11.5924C79.5837 10.9416 78.5986 9.82306 77.8599 9.33495C78.024 11.267 82.1284 16.1277 83.4213 17.409C84.55 18.5276 86.0686 19.4224 87.1152 20.48C87.7104 21.0698 88.2234 21.5782 88.798 22.168C89.1879 22.5544 90.1114 24.039 90.2961 24.1611L90.1935 23.3476L90.1524 21.5172L90.4808 17.8564V16.3921C90.4808 14.521 88.9827 11.145 88.2644 9.82306C87.423 8.2774 85.5966 5.99959 84.0985 5.20642C84.2011 5.65385 85.2067 7.38254 85.494 8.1147C85.8429 8.98922 86.2738 10.4535 86.438 11.4704C86.6637 12.7923 86.7663 13.9109 87.1563 15.0498C87.423 15.843 88.1003 17.5717 88.1208 18.3852V18.4055Z" fill="#009EDB"/>
<path fill-rule="evenodd" clip-rule="evenodd" d="M68.2967 23.2459L68.7687 23.4289L68.6456 23.8153L69.1176 23.978L69.056 23.4899L69.1997 23.795H69.3844L69.3638 23.4696L68.3377 22.7985L68.2967 22.8798V23.2459Z" fill="#009EDB"/>
<path fill-rule="evenodd" clip-rule="evenodd" d="M69.1176 24.5271C69.1176 24.8322 69.3843 24.8728 69.569 24.9745C69.6306 24.8932 69.7537 24.7508 69.7537 24.7101C69.7537 24.5678 69.528 24.0593 69.3843 24.0593C69.2407 24.0593 69.1176 24.3644 69.1176 24.5271Z" fill="#009EDB"/>
<path fill-rule="evenodd" clip-rule="evenodd" d="M63.8024 24.8119C63.8024 25.0966 63.905 25.0559 64.1308 25.0559L64.336 24.8119L64.4386 25.178L64.808 24.9949C64.767 24.5271 64.6438 24.6492 64.1718 24.5475C64.0487 24.6085 63.8024 24.6695 63.8024 24.8322V24.8119Z" fill="#009EDB"/>
<path fill-rule="evenodd" clip-rule="evenodd" d="M64.4591 25.727L64.808 25.7677L65.1363 25.1779L65.6904 24.9949V24.8932L65.4236 24.5475L65.4852 23.8967C65.321 23.795 65.321 23.7136 65.1158 23.7136H64.9311C64.4591 23.7136 64.2949 23.8967 64.2949 24.3441C64.6233 24.4254 65.0337 24.5678 65.0337 24.9949C65.0337 25.1779 64.6438 25.4016 64.4796 25.4627V25.7474L64.4591 25.727Z" fill="#009EDB"/>
<path fill-rule="evenodd" clip-rule="evenodd" d="M69.7538 26.6422C69.8153 26.5405 69.8358 26.5405 69.8358 26.3575V25.9711L69.4459 26.0931L69.7538 26.6219V26.6422Z" fill="#009EDB"/>
<path fill-rule="evenodd" clip-rule="evenodd" d="M64.4591 25.7271L64.1923 25.178C63.5356 25.6457 64.6028 26.0932 63.4536 26.0932C63.3509 26.2559 63.2689 26.2559 63.2689 26.4592V26.6423C63.2689 26.7846 63.3304 26.927 63.4536 26.8457L64.7464 26.805L64.4796 26.3779L65.0337 26.2559C64.9927 25.8695 64.9722 25.8898 64.5823 25.8898L64.4796 25.7068L64.4591 25.7271Z" fill="#009EDB"/>
<path fill-rule="evenodd" clip-rule="evenodd" d="M47.4465 26.561C47.3028 26.9067 47.1592 26.683 47.1592 26.9067C47.1592 26.9881 47.2618 27.0897 47.3439 27.0897C47.6722 27.0897 47.5696 26.9474 47.5286 26.7237C47.8774 26.7033 47.8159 26.7847 47.898 26.4796L47.4465 26.561Z" fill="#009EDB"/>
<path fill-rule="evenodd" clip-rule="evenodd" d="M61.976 27.4558C62.2633 27.4761 62.3043 27.5575 62.6121 27.5575C62.7968 27.5575 62.9815 27.3948 62.9815 27.2728C62.9815 27.0694 62.92 26.988 62.7147 26.988C62.2838 26.988 62.017 27.0084 61.976 27.4355V27.4558Z" fill="#009EDB"/>
<path fill-rule="evenodd" clip-rule="evenodd" d="M54.5881 28.4726L55.5116 27.6388L55.6758 27.232L55.2859 27.0693L54.6702 27.5574L54.6086 27.4761C54.6086 28.0455 54.2393 28.1066 54.2393 28.493C54.2393 28.6963 54.1982 28.4523 54.3419 28.6963L54.6086 28.493L54.5881 28.4726Z" fill="#009EDB"/>
<path fill-rule="evenodd" clip-rule="evenodd" d="M69.7537 26.6423L70.2052 27.6592L70.3283 28.7574L70.4925 29.2252C70.7182 29.1642 70.944 29.1438 70.944 28.8591V28.5744C70.944 28.1066 70.4309 26.5203 70.3078 26.0118H69.9384C70.1026 26.3576 70.1436 26.5406 69.7537 26.6626V26.6423Z" fill="#009EDB"/>
<path fill-rule="evenodd" clip-rule="evenodd" d="M45.6201 32.9469L46.0715 33.313L46.3383 33.2316C46.2973 32.8249 46.1331 32.6825 45.7227 32.6825L45.6201 32.9469Z" fill="#009EDB"/>
<path fill-rule="evenodd" clip-rule="evenodd" d="M68.5635 33.9638C68.9739 33.9638 68.9944 33.9841 69.015 33.5977C68.6456 33.5977 68.5635 33.5977 68.5635 33.9638Z" fill="#009EDB"/>
<path fill-rule="evenodd" clip-rule="evenodd" d="M45.8868 33.5977C45.8253 33.8214 45.7021 34.0655 46.0715 34.0655H46.995C46.8924 33.6994 46.8513 33.3537 46.3383 33.3333L46.3999 34.0045L46.1741 33.5164L45.9073 33.5977H45.8868Z" fill="#009EDB"/>
<path fill-rule="evenodd" clip-rule="evenodd" d="M45.4969 35.2857L45.4354 35.4891L45.9689 35.7738V35.123C45.9689 34.879 45.9074 34.8993 45.7432 34.879L45.4969 35.2654V35.2857Z" fill="#009EDB"/>
<path fill-rule="evenodd" clip-rule="evenodd" d="M43.4242 35.062H43.26L42.9727 35.7942H43.5268V35.5095C43.5268 35.2654 43.4858 35.2654 43.4447 35.0417L43.4242 35.062Z" fill="#009EDB"/>
<path fill-rule="evenodd" clip-rule="evenodd" d="M46.8103 34.7773H47.0771C46.9539 35.2247 46.1126 35.5501 46.5435 35.7331C46.5846 35.7535 47.898 35.6721 47.898 35.4077C47.898 35.0417 47.5286 34.879 47.2002 34.8383L46.9745 34.3095H46.523C46.523 34.5942 46.5025 34.7569 46.7898 34.7569L46.8103 34.7773Z" fill="#009EDB"/>
<path fill-rule="evenodd" clip-rule="evenodd" d="M92.3278 30.3844C91.9584 29.8556 91.4248 27.4354 90.9118 26.4999C90.214 25.1779 89.4958 24.5068 88.5107 23.5103C87.7719 22.7781 86.4996 21.5375 85.6992 20.9274C84.7757 20.2359 83.9343 18.975 82.9288 18.3038C83.2571 19.7478 86.7458 26.1745 87.6283 27.5168C88.5518 28.9201 89.6805 30.12 90.5834 31.5029C91.0349 32.1944 91.5069 32.9266 91.8763 33.6791C92.0405 34.0045 92.6766 36.1602 92.7998 36.2416C92.8819 35.3671 93.7848 31.6656 94.0721 30.8318C94.3594 29.9979 95.1598 26.1948 95.1598 25.1576V24.5068C95.1598 21.4358 94.6673 19.6054 93.9695 17.2666C93.518 15.7616 91.9379 12.6906 90.8707 11.9585C90.8707 12.1822 91.3222 13.4025 91.4659 13.9312C91.63 14.5617 91.7942 15.5176 91.7942 16.2497C91.7942 17.9784 91.7942 19.4224 91.6095 21.1918C91.4043 23.0222 91.2196 23.9373 91.5274 25.8491C91.7532 27.293 92.3483 28.7777 92.3483 30.3437L92.3278 30.3844Z" fill="#009EDB"/>
<path fill-rule="evenodd" clip-rule="evenodd" d="M3.38611 23.8967V24.7306C3.38611 26.9067 4.00176 28.8998 4.4122 30.7505C4.55585 31.3606 5.68455 36.262 5.84873 36.445C5.84873 33.3537 9.50162 29.5912 10.8971 27.4965C11.759 26.2152 15.3093 19.6055 15.6171 18.2225C14.7963 18.7716 13.7291 20.1749 12.8467 20.8461C12.1284 21.3749 10.6508 22.7985 9.97362 23.4696C9.02961 24.4052 8.1677 25.2593 7.55204 26.5203C7.24422 27.1304 6.1976 30.4861 6.11551 30.5878C6.11551 28.4523 7.12108 26.7033 7.12108 24.6289V22.9815L6.6696 17.0226C6.50543 15.0702 7.24422 13.5245 7.59309 12.0806C6.75169 12.3043 4.92525 16.0057 4.5969 17.0429C3.9402 19.1581 3.38611 21.1308 3.38611 23.8967Z" fill="#009EDB"/>
<path fill-rule="evenodd" clip-rule="evenodd" d="M51.8381 36.9737C51.9613 36.9737 52.0639 36.7907 52.1049 36.689C52.0228 36.3026 52.0434 36.0992 51.6534 36.0382V36.689C51.6534 36.8314 51.715 36.9737 51.8381 36.9737Z" fill="#009EDB"/>
<path fill-rule="evenodd" clip-rule="evenodd" d="M51.9203 37.3398L52.4744 37.6246L52.7412 37.5025C52.7412 37.1161 52.577 36.8721 52.2076 36.8721C52.0229 36.8721 51.9613 37.1161 51.9408 37.3195L51.9203 37.3398Z" fill="#009EDB"/>
<path fill-rule="evenodd" clip-rule="evenodd" d="M50.3811 37.6245C50.3811 37.4415 50.2375 37.6652 50.1964 37.1771H50.4632V36.9941L50.0938 36.8924L49.786 37.3195C49.7449 37.7669 49.8681 37.9906 50.2785 38.0923C50.3195 37.8889 50.3606 37.8889 50.3606 37.6245H50.3811Z" fill="#009EDB"/>
<path fill-rule="evenodd" clip-rule="evenodd" d="M67.4758 38.072C67.4964 38.3974 67.7631 38.6211 68.0299 38.6211H68.3993C68.6456 38.6211 68.6456 38.5804 68.8508 38.5398C68.8508 38.2347 68.7071 37.8076 68.4814 37.8076C67.8657 37.8076 67.9273 38.0517 67.4758 38.0923V38.072Z" fill="#009EDB"/>
<path fill-rule="evenodd" clip-rule="evenodd" d="M47.1797 39.9024C47.1797 39.9024 46.9745 40.0244 46.8924 40.1058L47.1387 40.4922L47.0566 40.8379C47.2002 40.8989 47.3849 41.021 47.5286 41.021C47.8569 41.021 48.2674 40.8989 48.2674 40.5735V40.4719C48.2674 40.1465 48.0416 40.1871 47.7133 40.1871C47.5696 40.0854 47.3849 39.9227 47.1592 39.9227L47.1797 39.9024Z" fill="#009EDB"/>
<path fill-rule="evenodd" clip-rule="evenodd" d="M78.1677 41.6514L78.4345 41.7328C78.5986 41.6514 78.8859 41.6311 78.8859 41.4481C78.8859 41.1837 78.2703 41.1837 78.1472 41.6311L78.1677 41.6514Z" fill="#009EDB"/>
<path fill-rule="evenodd" clip-rule="evenodd" d="M34.3741 41.8548C34.3741 41.387 34.3741 41.387 33.9226 41.387V41.7531L34.3741 41.8548Z" fill="#009EDB"/>
<path fill-rule="evenodd" clip-rule="evenodd" d="M20.0293 43.1157H19.5778C19.6394 43.5225 19.5778 43.4818 20.0293 43.4818V43.1157Z" fill="#009EDB"/>
<path fill-rule="evenodd" clip-rule="evenodd" d="M17.7103 43.4818C18.2234 43.6648 17.5872 43.6038 18.1823 43.6648L18.0797 43.2174L17.7924 43.1157L17.6898 43.4818H17.7103Z" fill="#009EDB"/>
<path fill-rule="evenodd" clip-rule="evenodd" d="M9.78889 47.59V49.0543C9.78889 50.2136 10.0352 51.5355 10.2609 52.532C10.4456 53.4066 11.2254 55.0336 11.2665 55.5623C10.8765 55.2776 9.37845 51.6982 8.86541 50.905C8.33184 50.0915 7.96245 49.5424 7.42888 48.7899C6.93635 48.1188 6.25913 47.5086 5.76661 46.8782C4.74052 45.5562 3.50921 44.3563 2.64729 42.8717C2.15477 42.0175 1.80589 41.5497 1.35441 40.5939C1.19024 40.2278 0.451453 38.194 0.3078 38.072C0.3078 42.6073 2.42155 48.2815 4.49426 50.722C5.80765 52.2677 7.20314 53.5693 8.70123 54.9319C9.13219 55.3183 13.1545 58.7147 13.2981 58.7553C13.0724 57.7385 12.5799 57.4741 12.5799 55.9081C12.5799 54.7488 12.5593 53.7523 12.6619 52.5117C12.8672 50.3763 13.1134 47.9968 13.1134 45.7393C13.1134 44.3563 12.9903 42.2819 12.703 41.1023C12.3746 39.6583 11.8411 38.3974 11.5538 37.1365C10.6919 37.7669 9.80941 45.4139 9.80941 47.5697L9.78889 47.59Z" fill="#009EDB"/>
<path fill-rule="evenodd" clip-rule="evenodd" d="M98.5458 29.8353V27.1711L97.9918 23.6934C97.8276 23.8764 97.6018 25.8898 97.5198 26.3372C97.3556 27.0491 96.9862 28.0049 96.7399 28.6557C96.1858 30.0794 95.406 31.4827 94.7493 32.886C94.0926 34.2486 93.559 35.9773 93.2717 37.645C93.1281 38.5195 92.8408 39.4143 92.7176 40.1872C92.5945 40.96 92.1841 42.1802 92.1636 42.831H91.9789C92.0199 42.6277 92.0609 42.6277 92.0609 42.3633V40.1668C92.0609 38.0924 90.7681 34.8384 90.0498 33.3944C89.7009 32.6826 87.0536 28.0456 86.6637 27.9032V30.0184C86.6637 30.5675 87.1152 33.7605 87.3614 34.452C87.5872 35.1231 87.6693 35.8552 87.9155 36.5671C88.1618 37.3196 88.4491 37.828 88.7159 38.4991C89.2289 39.7804 91.8352 44.8445 90.8707 46.8579C91.1169 46.7765 92.9844 43.6445 93.2923 43.1564C94.1542 41.8752 94.9545 40.7363 95.7549 39.394C96.4526 38.2347 97.3145 36.5671 97.6018 35.1028C97.766 34.3096 98.1149 33.3334 98.1765 32.5606C98.1765 32.3979 98.5253 29.8353 98.5458 29.815V29.8353Z" fill="#009EDB"/>
<path fill-rule="evenodd" clip-rule="evenodd" d="M17.3615 44.6614C17.5256 44.9664 17.1973 44.8851 17.7308 44.9461V44.58L17.3615 44.6614Z" fill="#009EDB"/>
<path fill-rule="evenodd" clip-rule="evenodd" d="M63.9871 45.4952C63.9871 45.6783 64.1512 45.8613 64.2539 45.8613C64.4386 45.8613 64.89 45.1292 64.3359 45.1292C64.1307 45.1292 63.9666 45.2715 63.9666 45.4952H63.9871Z" fill="#009EDB"/>
<path fill-rule="evenodd" clip-rule="evenodd" d="M56.7019 45.4139C56.3119 45.4342 56.2093 45.6173 56.0452 45.8613C56.2914 45.9833 55.9631 45.9427 56.312 45.9427H56.5993L56.7019 45.3936V45.4139Z" fill="#009EDB"/>
<path fill-rule="evenodd" clip-rule="evenodd" d="M0 26.8253V30.4047C0.0820874 30.5471 0.307828 32.6012 0.369393 32.9672C0.492524 33.7197 0.759308 34.6349 0.964527 35.3874C1.45705 37.1364 2.01114 38.194 2.83201 39.5566C3.55028 40.7769 4.43272 41.9971 5.23307 43.197C5.47933 43.5631 7.59308 46.8782 7.59308 46.8782C7.59308 44.3563 7.65465 44.0512 8.29082 41.8954C8.66022 40.6752 9.5837 38.9465 10.1173 37.7872C11.3281 35.245 11.8001 31.4826 11.8001 27.8422C11.246 28.493 10.4046 30.0996 9.85048 30.9335C9.17326 31.991 8.68074 33.0079 8.10613 34.2282C6.89534 36.7907 6.40281 38.8448 6.40281 42.5869C6.13603 42.1802 5.52038 38.9872 5.39724 38.194C5.15098 36.7297 4.65846 35.2044 4.20698 33.9028C3.73497 32.5808 2.95515 31.4012 2.46262 30.1403C2.23688 29.5302 1.90853 28.9404 1.62123 28.2286C1.41601 27.7608 1.10818 26.4592 0.923483 26.1948L0.533568 23.7136L0 26.8456L0 26.8253Z" fill="#009EDB"/>
<path fill-rule="evenodd" clip-rule="evenodd" d="M51.0173 46.7765C51.2841 46.7561 51.3867 46.7765 51.3867 46.4918V46.207C51.1199 46.2274 51.0173 46.207 51.0173 46.4918V46.7765Z" fill="#009EDB"/>
<path fill-rule="evenodd" clip-rule="evenodd" d="M79.0912 46.2477V46.6748L79.5427 46.7765L79.8505 45.8816L79.7684 45.8003L79.0912 46.2477Z" fill="#009EDB"/>
<path fill-rule="evenodd" clip-rule="evenodd" d="M54.2187 46.8578C54.7112 46.8578 55.1832 46.8578 55.2243 46.4104C54.7933 46.4104 54.3213 46.5121 54.2187 46.8578Z" fill="#009EDB"/>
<path fill-rule="evenodd" clip-rule="evenodd" d="M51.9202 46.9595C51.9202 47.0815 52.0434 47.1426 52.187 47.1426H52.4538V46.5934C52.2075 46.6138 51.8997 46.7358 51.8997 46.9595H51.9202Z" fill="#009EDB"/>
<path fill-rule="evenodd" clip-rule="evenodd" d="M70.7593 48.973C70.7593 49.1153 70.8208 49.2577 70.944 49.2577C71.0261 49.2577 71.2108 49.0543 71.2108 48.973C71.2108 48.6679 71.0466 48.7086 70.7593 48.6882V48.973Z" fill="#009EDB"/>
<path fill-rule="evenodd" clip-rule="evenodd" d="M19.1058 48.973C19.1058 48.973 18.9211 49.0746 18.9211 49.156C18.9211 49.5017 19.1264 49.7661 19.4752 49.8068C19.4752 49.4611 19.3726 48.973 19.1058 48.973Z" fill="#009EDB"/>
<path fill-rule="evenodd" clip-rule="evenodd" d="M70.3078 49.7865C70.3078 49.9899 70.5541 49.9695 70.7593 49.9695L70.8619 49.5221C70.6156 49.5221 70.3078 49.5628 70.3078 49.8068V49.7865Z" fill="#009EDB"/>
<path fill-rule="evenodd" clip-rule="evenodd" d="M85.4735 45.3122L85.3914 45.963L86.0275 54.1997V55.8471C86.0275 57.291 85.4529 57.9419 85.2067 58.8774C86.7458 57.8605 88.2234 56.1928 89.7215 55.0743C90.9117 54.1794 93.046 52.0643 93.9695 50.905C96.1859 48.0985 98.197 43.2988 98.197 38.2957C98.0739 38.4381 97.3556 40.3702 97.1504 40.8176C96.7194 41.6921 96.309 42.3226 95.7959 43.1157C94.8519 44.519 93.7232 45.902 92.6151 47.1629C91.4453 48.4849 90.3576 49.6441 89.5368 51.3118C89.1879 52.0236 87.423 55.8064 87.0742 56.0708C87.1973 55.5013 87.6077 54.7895 87.854 54.098C88.0592 53.4879 88.3465 52.5117 88.4491 51.8609C88.6749 50.3153 88.9416 48.5459 88.798 46.6545C88.7159 45.4749 88.5517 43.1157 88.2439 41.8141C88.0592 41.082 87.9771 40.2481 87.7719 39.455C87.6488 38.9872 87.1973 37.5636 87.1768 37.2178C86.8279 37.4619 86.1712 40.1871 85.966 40.8583C85.6581 41.9158 85.5145 43.9496 85.5145 45.3529L85.4735 45.3122Z" fill="#009EDB"/>
<path fill-rule="evenodd" clip-rule="evenodd" d="M21.0349 51.3525C21.7532 51.3525 20.9118 50.6203 20.7681 50.6203C20.645 50.6203 20.5834 50.7423 20.5834 50.8847C20.5834 51.1084 20.8297 51.3525 21.0349 51.3525Z" fill="#009EDB"/>
<path fill-rule="evenodd" clip-rule="evenodd" d="M49.9091 69.2902V68.2937L49.8886 67.9276V67.4598V67.0938V66.626V66.3412V65.8938V65.3447V64.8769V64.1448V63.677L49.9091 63.3109H50.73C51.7972 63.3109 53.8493 63.0262 54.8139 62.8228C55.368 62.7008 56.1683 62.5178 56.7224 62.3551C58.241 61.8873 57.6869 62.4771 58.5078 62.4771H58.7746C59.1029 62.4771 61.2988 61.2162 61.6066 61.0128C62.0786 60.6671 62.2633 60.423 62.8995 60.0976C63.7203 59.6909 63.5356 59.5892 64.1103 59.1214C64.808 58.5316 65.9367 57.9825 66.7165 57.3317C67.2706 56.8843 68.6866 55.7454 69.056 55.2369L73.2425 59.4671C72.6063 59.8942 71.7649 60.8704 71.0466 61.3992C70.2668 61.9687 69.487 62.5585 68.6866 63.1686C67.2296 64.2668 65.1569 65.3854 63.392 66.1989C59.8417 67.8462 54.937 69.1682 49.9297 69.2902H49.9091ZM25.4061 59.4061L29.4283 55.2776C30.6802 56.1114 31.8294 57.3724 33.2249 58.3282C34.4767 59.1824 36.139 60.2196 37.6166 60.8094C39.2378 61.4399 40.8385 62.2127 42.6855 62.5991C44.594 63.0059 46.482 63.3313 48.801 63.3313V69.1885H48.0622C43.5474 69.1885 38.0065 67.5818 34.9898 66.0769C33.0607 65.1007 31.5831 64.2872 29.8183 63.1076C28.8948 62.4974 25.8986 60.1586 25.3855 59.3858L25.4061 59.4061ZM49.8886 57.5757V56.4775L53.0285 56.1114C53.3773 56.3352 53.6031 56.3962 53.8288 56.7826C53.9109 56.9249 54.4034 57.6164 54.4034 57.7588C54.4034 57.9215 54.1777 58.6536 54.1366 58.7553C54.4034 59.2434 54.7113 59.9349 55.2448 60.1179C55.8194 60.301 56.2504 60.8501 56.4967 61.3179C55.6758 61.745 51.3457 62.3347 49.9091 62.3347V60.9518V60.5044V59.8536L49.8886 59.4061V58.4909V58.0435V57.5757ZM51.633 54.8302L52.105 54.7488V55.1149C51.7151 55.3183 51.2431 55.3996 50.6479 55.3996H49.9091V54.5048L51.2841 54.7488L51.7356 54.5861L51.633 54.8505V54.8302ZM28.9358 53.1421L29.6336 52.8167L30.2287 53.1421L29.5515 53.8133L28.9358 53.1421ZM36.611 52.2473C36.7546 52.3286 38.5811 53.5896 39.0941 53.854C40.0997 54.3827 40.8385 54.6878 41.9262 55.1352C43.4858 55.7657 46.6667 56.4775 48.801 56.4775V62.3347C48.5137 62.2737 46.1126 62.0704 45.7843 62.05C44.8813 62.0297 43.7936 61.7653 42.9728 61.5823C41.331 61.2162 39.5456 60.5247 38.068 59.8942C36.0569 59.0197 31.2753 56.0301 30.2697 54.5048L30.9675 53.8336L31.891 54.4844C33.0812 54.4844 33.6764 54.3624 34.6409 53.8336C35.3386 54.1794 36.5289 53.793 37.0009 53.1625L36.611 52.2676V52.2473ZM68.3172 54.5454C67.7426 55.1556 64.9927 57.5757 64.2744 57.7791V57.413C64.2744 57.1487 64.6438 56.986 64.6438 56.4979C64.6438 56.1521 64.1923 55.8674 64.1923 55.5827C64.1923 55.5623 65.3826 54.1387 65.3826 53.9353V53.854C65.3826 53.5286 64.7259 52.7354 64.5823 52.654C64.2539 52.4303 63.5562 52.3693 63.5562 51.6575V51.3728C63.5562 51.1694 64.0077 50.5796 64.1923 50.4576C64.6233 50.7423 65.4647 51.6982 65.9162 52.1253C66.6344 52.8574 66.6755 53.3862 67.2091 54.1997H67.9478L68.3378 54.5454H68.3172ZM43.8757 51.2508V51.6168C43.8757 52.3693 45.6817 54.159 46.2563 54.4844L48.801 54.8098V55.3589H48.3495C46.1331 55.3589 42.1519 54.3014 40.7769 53.5082C39.1352 52.5524 36.1595 51.0474 35.1745 49.5831L39.1967 45.4749C40.1613 46.1257 40.859 46.8985 42.0288 47.5696C42.6444 47.9357 44.7376 48.9526 45.5996 48.9526C45.4764 49.4204 44.8197 49.6034 44.6145 49.9695C44.2862 50.5186 44.635 51.0474 43.8757 51.2304V51.2508ZM56.1273 43.3801C56.4146 43.4615 56.6814 43.4411 56.6814 43.7665C56.6814 44.0919 54.7523 44.3563 54.7523 44.9664V45.2512L54.3008 45.4342L54.4855 45.0681L54.7113 44.2343L54.5676 43.8885L54.7933 43.6242L55.0396 43.9699L56.1273 43.4208V43.3801ZM49.8271 42.7496C50.258 42.7496 50.3606 42.4242 50.3811 43.1157L50.1144 43.1971L50.1965 43.4818H49.745L49.5192 42.77H49.8271V42.7496ZM40.0381 44.7631C40.387 44.275 43.8757 40.7566 44.2451 40.7362C44.5529 41.6107 47.467 42.6276 48.8215 42.7496L48.9241 43.1971L48.4521 43.2581C48.4111 43.075 48.37 42.9123 48.0827 42.9123C47.9596 42.9123 47.7133 43.6038 47.7133 43.6445C47.7133 43.8479 47.7749 43.9292 47.9801 43.9292C48.4316 43.9292 48.0827 43.6242 48.6163 43.5631L48.3084 44.275L48.37 44.3563L49.7039 43.8072L49.7655 43.9089L48.9857 44.397C48.4726 44.397 48.4521 44.336 48.4316 44.8444C48.6984 44.9054 48.8831 44.9868 48.8831 45.3122C48.8831 45.4342 48.7189 45.4952 48.6163 45.5969L47.8775 45.4952C47.5697 45.7189 47.426 45.9223 47.426 46.4307V47.0612C47.426 47.4883 47.7338 47.1222 47.8775 47.712C48.6163 47.712 48.7394 47.2442 48.9651 47.2442H49.4166L49.3345 47.1832L50.1349 46.1053L50.0528 46.0443H50.3196C50.689 46.0443 50.7095 45.5969 51.1405 45.5969C51.3252 45.5969 51.2841 45.841 51.4893 45.9833C51.6535 46.085 51.8792 46.085 52.0639 46.146C52.5359 46.2884 52.3923 46.5731 52.8848 46.6951L52.9669 45.8613L51.9819 45.4545V45.2105C53.4389 45.3325 52.8027 45.9223 53.7878 46.5934C53.952 46.4918 53.952 46.4104 54.1572 46.4104H54.424V46.1257C54.424 45.841 54.2598 45.8206 54.0546 45.7596C54.1572 45.6172 54.0546 45.5766 54.3213 45.5766C54.4445 45.5766 54.7113 46.024 55.1422 46.024C55.9221 46.024 55.5116 45.2308 56.7019 45.1901C56.7634 45.4545 56.784 45.3528 56.784 45.5562C56.784 46.6341 55.7579 46.9392 54.7728 47.0205C53.9725 47.0815 54.034 47.4476 53.6646 47.651C53.2132 47.9154 52.9053 47.7527 52.3102 47.7527H52.0434L51.7766 47.0205C51.2636 47.0205 50.1759 47.1019 49.8271 47.1832C49.1909 47.3459 48.9241 47.9154 48.4726 47.8544L47.7338 47.7527L46.995 48.2815C46.5641 48.0781 45.5585 47.9764 44.9223 47.712C44.2451 47.4476 43.6295 47.3053 43.0549 46.9392C42.1929 46.4104 40.4691 45.4749 39.9561 44.7224L40.0381 44.7631ZM57.3996 41.265L57.6254 41.6311H57.4201V41.8344C58.4052 41.8141 58.3847 41.6717 59.1645 42.2005L58.6925 42.8106L58.6309 42.7293L58.3436 42.2819H57.4407L57.0507 41.6107L57.4201 41.2447L57.3996 41.265ZM51.5714 41.0006C51.5714 40.6752 51.633 40.6549 51.6535 40.3498L51.9203 40.4515C51.9203 41.0413 51.5509 41.6107 52.3923 41.6311L51.9613 41.9361L52.1665 42.5259L52.0845 42.4852L51.674 42.9733L51.1405 42.8717C50.9147 42.4649 50.4838 42.0175 50.7711 41.7938C51.1815 42.0988 50.9763 42.6276 51.4072 42.6276H51.4893C51.8177 42.6276 51.8177 42.0378 51.8587 41.7124C51.7356 41.509 51.5919 41.4074 51.5919 41.0616V40.9599L51.5714 41.0006ZM41.8441 40.4311L42.3982 39.9024L42.6855 39.0482L42.747 39.1092L43.4242 40.0041L39.2994 44.0512C38.3143 43.3191 36.2006 39.5566 36.2006 37.7262L36.9188 38.2754H38.2117L38.6837 39.0482L38.7658 39.0075L38.8684 38.7431L39.5456 39.1702C39.4225 39.2516 39.3199 39.2109 39.3199 39.4753C39.3199 39.6787 39.7714 40.1057 40.2434 40.1261C40.2639 40.3905 40.2434 40.4922 40.5101 40.4922C40.7564 40.4922 40.6538 40.0854 40.6948 39.8414L40.4486 39.516L40.6128 39.4346L40.9821 40.2074C40.7974 40.4922 41.1258 41.4074 41.4336 41.4074C41.5568 41.4074 41.803 40.8582 41.803 40.7566V40.3905L41.8646 40.4718L41.8441 40.4311ZM34.5588 37.9906C34.3125 37.9906 34.3125 38.0313 34.1073 38.072L34.2099 37.4415L34.9077 37.7669L34.8256 37.9703H34.5588V37.9906ZM64.9106 49.7051C65.5468 48.7696 66.4087 47.9154 67.1475 46.8172C67.8247 45.8003 68.4404 44.702 68.9329 43.5631C69.3844 42.5259 69.9795 40.8989 70.2052 39.7193C70.3284 39.0685 70.5541 38.1737 70.5952 37.5432C70.6362 37.0958 70.5336 35.4281 70.9646 35.4281H76.5465V36.1603C76.5465 39.9431 75.3562 43.7055 74.166 46.3291C73.5708 47.6713 72.6884 49.217 71.888 50.3559C71.6007 50.7627 69.1586 53.8133 69.1381 53.8336L68.8713 53.6303C68.9124 53.4472 68.9534 53.4269 68.9534 53.1828V52.6337C68.9534 52.6337 68.7072 51.8812 68.6866 51.5355C68.6045 50.783 68.3378 51.3524 68.3172 50.5389C67.9889 50.4576 67.6811 50.2542 67.3938 50.2542C67.168 50.2542 67.0244 51.3118 67.0244 51.6372L64.9311 49.7051H64.9106ZM73.9607 58.674L69.8564 54.5454C70.6773 53.3252 72.0112 52.2066 72.8526 50.7626C73.263 50.0305 73.776 49.461 74.1249 48.6679C74.3712 48.0984 74.9458 47.0002 75.2741 46.4307C75.9103 45.2512 76.567 42.8513 76.9159 41.3057C77.1211 40.4515 77.4084 39.4753 77.4495 38.4381C77.4495 37.95 77.4905 35.4281 77.9009 35.4281H83.565C83.565 40.4718 82.2105 45.3935 80.6303 48.8916C79.8095 50.7016 78.7629 52.5727 77.6752 54.159C76.9775 55.1759 74.8021 58.1249 73.9607 58.674ZM25.7755 41.3667C25.6523 41.5497 25.6113 41.509 25.5908 41.7328L25.5497 43.2988L24.852 43.4004L24.7904 43.1767L24.7494 43.4615C24.5442 43.5021 24.5442 43.5428 24.2979 43.5428H23.2923C22.6972 41.0209 21.9174 38.5601 21.9174 35.3874H27.8687L28.0944 38.133C27.7661 38.0923 27.9303 38.0313 27.6019 38.0313C27.2325 38.0313 27.1299 38.5194 26.9862 38.8041C26.8426 39.1092 26.6374 39.1295 26.3706 39.4753C26.0628 39.9024 26.268 40.0041 25.9191 40.3905C25.7139 40.6345 25.5497 41.0006 25.7549 41.326L25.7755 41.3667ZM33.2865 35.8755C33.5738 35.8755 33.5943 35.6518 33.6558 35.4281H35.0308L35.1334 35.8755H35.4002L35.2155 36.2416V36.7094C35.0719 36.7704 34.4972 37.0754 34.3946 37.0754C34.3741 37.0754 34.2305 37.0144 34.1278 36.9941C34.0868 36.4857 33.3275 35.9772 33.4506 36.75C33.5943 37.6652 33.4917 37.5229 33.4917 38.3567C33.3275 38.255 33.3275 38.1737 33.1223 38.1737H32.8555V38.4584C32.8555 39.2516 33.2249 38.7635 33.5943 39.2922L33.2249 39.3736C33.2454 40.1464 33.6148 40.8989 34.0458 41.2243C34.5383 40.8582 34.1689 40.1464 34.1278 39.76H33.7585L33.6558 39.3939L33.9432 39.3126L34.2305 39.7397L34.3125 39.6787L34.1894 39.3126L34.723 38.9262L34.6204 38.7838L34.0252 39.1295V38.7431C34.0252 38.4991 34.0663 38.4991 34.1073 38.2957L34.8461 38.2347L34.5588 38.7431L35.2976 38.6414C35.3181 39.4346 36.2621 41.5294 36.611 42.0988C36.9393 42.6276 37.1651 43.075 37.514 43.5631C37.8628 44.0309 38.3143 44.397 38.5811 44.8851L34.4972 48.9323C34.2715 48.8713 34.2099 48.8102 33.9226 48.8102H33.2865C33.348 48.0984 33.8611 48.4238 34.0458 47.9154C34.1073 47.7527 34.0458 46.7561 33.9432 46.5121C33.4096 45.4952 33.1223 45.9223 33.1223 44.0512L33.82 43.4615L33.7585 43.4004L33.4096 43.5225V43.3191H33.2249V43.5835H33.0402L33.2454 42.8513L33.1223 42.892L32.6913 42.2412L32.9376 42.2005V42.0175L32.5271 41.7124L32.7529 41.6514L32.6503 41.0209L31.932 41.1023V40.8176H32.3835V40.5328C32.3835 39.821 30.8649 39.516 31.3779 38.4177C31.2958 38.2754 31.1111 38.011 31.1111 37.8686V37.5025C31.1111 37.2992 31.1932 37.2992 31.2958 37.1365L32.404 37.0144L32.4451 35.8552H33.307L33.2865 35.8755ZM28.9153 35.4281H31.1727L30.7007 36.384L30.3724 37.4619L30.2697 37.4212V37.7873C30.2697 38.2957 30.4955 38.1533 30.7212 38.5194C30.6186 38.6821 30.516 38.8855 30.2697 38.8855H30.003C29.8593 38.8855 29.5925 38.6211 29.1821 38.5194L28.9358 35.4078L28.9153 35.4281ZM27.0478 52.5524C27.3351 52.8167 28.6485 54.3624 28.8127 54.6471L24.7083 58.674C23.7848 58.0639 21.6916 55.1352 20.9528 54.098C19.8446 52.532 18.8391 50.7016 17.9772 48.8306C17.1768 47.1019 16.3559 44.6817 15.925 42.6479C15.6377 41.265 14.7963 36.8721 15.1041 35.4281H20.9528C20.9528 38.7635 21.6095 40.9396 22.2252 43.5835H21.8558C21.3838 43.5835 21.4454 42.9327 20.9323 42.9327C20.8092 42.9327 20.1114 43.0954 20.2961 43.4818C20.132 43.6038 19.4342 44.1326 19.3111 43.6648C19.1469 43.075 19.6805 43.2581 18.8391 42.8513L18.7365 43.1157H18.3055V43.4004H19.1264V43.5835H18.3876C18.326 43.8275 18.1208 44.1326 17.8335 44.1326C17.5462 44.1326 17.4231 43.7665 17.382 44.4173L17.854 44.3563L18.0592 45.6986H17.6693C17.6693 45.1901 17.9156 45.0681 17.2999 45.0681C17.2999 46.024 17.9361 47.0612 17.9361 47.1832C17.9361 47.4273 17.8951 47.4273 17.854 47.651L18.9622 48.9933L19.0443 48.9323C19.1059 48.6679 19.1264 48.7696 19.1264 48.5662C19.1264 47.9967 18.8596 47.59 18.757 47.1832L19.2085 46.8985C19.2495 47.2646 20.1114 48.0984 20.5013 48.0984C20.7681 48.0984 20.7271 47.5696 20.7681 47.468C21.0349 47.6713 21.3838 48.5662 21.7737 48.5662H22.0405L21.9379 47.9357L22.2252 48.3018L22.1431 48.7696C22.4099 48.9729 22.2662 49.1356 22.5741 49.1356C22.8203 49.1356 22.8203 49.095 23.0255 49.0543C23.0255 49.7864 23.908 50.9864 24.5852 50.9864H24.6673C24.9546 50.9864 24.9751 50.8237 25.0367 50.6203H25.2214C25.2214 52.1253 26.3911 52.0439 27.0273 52.654L27.0478 52.5524ZM65.9162 36.7907C65.9162 35.9365 65.4442 36.0992 65.28 35.4281H69.6717C69.6717 38.3974 68.8713 40.9193 67.9684 43.0547C67.4553 44.2546 65.1569 48.3832 64.2744 48.6882V48.1391C64.2744 47.6307 63.9871 46.3087 63.5356 46.3087C63.1252 46.3087 62.5506 47.6713 62.448 48.1391H61.8939C61.504 48.1391 61.5656 48.3221 61.1551 48.3221H60.7857C60.3958 48.3221 60.1085 48.0374 59.3287 48.0374V47.8544H59.0619C59.0619 47.8544 57.5228 47.2849 57.4201 47.2036L56.784 47.1426V47.0002L57.5228 46.8782L57.4201 46.4511C57.9127 46.9799 57.6048 47.0815 58.713 47.0815C58.8772 47.2036 61.3193 47.9154 61.545 47.9154H61.6271C62.1812 47.9154 62.3659 47.8747 62.3659 47.2646C62.6737 47.0612 62.9405 46.4511 63.0636 46.0443C63.1457 45.7393 63.0842 45.3732 63.1663 45.1495C63.2689 44.8851 63.4536 44.7834 63.4536 44.519V43.9699V43.5021L63.1457 42.9733C62.8995 42.8513 62.961 42.77 62.8379 42.77C62.3659 42.77 62.3043 43.0344 61.7503 43.0547L61.4219 44.0716L60.9089 43.9902L60.7036 44.2139L60.3753 44.2546C60.129 44.2546 60.129 44.2139 59.9238 44.1733L60.0264 43.8072H60.7447C61.3603 43.8072 61.3603 43.3394 61.6682 42.892C62.961 42.892 62.6943 41.4887 63.5972 40.8786L63.6998 39.9634H63.864V40.6955L64.1308 40.7769C64.8696 40.6142 64.5412 40.6345 64.8696 40.0447C65.0748 40.1464 65.321 40.3295 65.6084 40.3295C65.6494 40.3295 68.1736 39.4549 68.1736 39.4143C68.1736 38.7635 67.3732 38.3974 67.0859 37.95H66.6344L66.4703 37.7466L65.9983 36.75L65.9162 36.7907ZM33.1018 33.5977C33.5532 33.496 33.6969 33.2316 34.292 33.2316C34.9282 33.2316 35.195 33.8824 35.2155 34.5129H33.3891C33.1838 34.5129 33.1223 34.4519 33.1223 34.2282V33.5774L33.1018 33.5977ZM43.4242 35.062L43.7526 35.7738C43.8962 35.8349 43.8962 35.8755 44.1425 35.8755H44.4093V35.4281C44.4093 35.2247 44.4914 35.2247 44.594 35.062C44.594 33.9638 44.4298 33.9841 45.4149 33.9638L45.3123 34.3299H45.5996L45.6406 34.0451L45.497 33.8011L45.8663 33.5977V33.313C45.4559 33.2723 45.4764 33.13 45.2302 33.13C45.1686 33.13 44.8813 33.4147 44.7787 33.496C44.7992 33.2113 45.1481 32.6418 45.3738 32.5402C46.1947 32.1334 45.6201 32.3368 46.0716 31.6656C46.9745 31.6656 47.898 31.0148 48.2674 30.4657L48.1237 29.2658L48.5342 29.0421V28.8997L48.2674 28.8184L47.9596 29.1438L47.8159 29.1845L47.9801 28.615L49.1088 28.5743L49.3345 29.0828H49.6629V29.2861L48.842 29.1641H48.4726C48.4316 29.3878 48.3905 29.3878 48.3905 29.6522C48.3905 29.9776 48.842 30.2217 49.1293 30.303C49.1293 30.5267 49.2114 30.7505 49.3961 30.7708H50.6685L51.5714 31.869L51.4688 32.3164H51.7561V32.1334H52.3923L52.2281 32.9672C52.3102 33.0893 52.4744 33.191 52.4744 33.4147C52.4744 33.6994 52.3102 33.6791 52.105 33.7808C52.105 34.3502 51.9203 34.1468 51.9203 34.3299C51.9203 34.5332 51.9613 34.4519 52.0024 34.6959C52.9053 34.6959 52.4128 35.7128 53.0079 35.7128C53.2337 35.7128 53.0079 35.5705 53.3773 35.4281L52.9874 36.0382L53.049 36.1603L54.4034 35.7128L54.1777 36.2213H53.1106C52.4128 36.2213 53.2747 36.9941 53.3773 37.1568C53.1926 37.5432 53.0695 38.8041 52.5565 38.8041H52.3718L51.2841 38.7025C50.8942 38.9668 50.5658 39.4143 50.4222 39.9634C50.2991 40.3905 50.4222 40.3701 50.217 40.7769C50.0323 41.143 49.8065 41.143 49.8065 41.387V41.6717H49.5398C47.8159 41.6717 45.8253 41.1836 44.9634 40.0244L45.8869 39.6583C46.0305 39.7193 46.01 39.7397 46.2563 39.7397H46.3383C46.5436 39.7397 46.5436 39.6583 46.7077 39.5566C47.8775 39.5566 47.426 39.5566 48.0827 39.1092L47.9801 38.8448C48.4111 38.7228 48.3495 38.4381 48.2674 38.1127C48.5957 37.9906 48.9036 37.2788 48.9036 36.8314H48.6368V36.6484L48.9446 36.506C48.801 36.2416 48.3905 35.9162 48.1032 35.9162H47.5491L46.1742 36.0179L46.01 36.2009L45.8253 37.7466H45.7022L45.8253 37.3602C44.8403 37.5839 45.3328 37.6856 44.8813 38.1533C44.635 38.3974 44.2862 38.7431 44.2656 39.1702H44.0809L43.3832 38.011L44.2451 37.5025C44.2246 37.7466 44.1015 37.8889 44.4503 37.8889H44.5324C44.9223 37.8889 44.9018 37.1771 45.107 36.8314C45.2712 36.5873 45.6406 36.1603 45.7227 35.8755C45.4559 35.8552 45.3533 35.8755 45.3533 35.5908V35.0417C45.3533 34.7976 45.3943 34.7976 45.4354 34.5943L45.066 34.4112L44.7992 34.5129V35.0417H45.2507L44.6145 35.3264V35.9569C44.6145 36.2619 44.2862 36.4857 43.9783 36.506C44.0809 36.3026 44.1425 36.0586 43.7936 36.0586H43.4242L43.2395 36.323L41.7825 36.4043V36.2416L41.2695 36.4246L41.3105 36.5263H40.7564C40.9821 35.6518 41.3926 36.7907 41.3926 35.5298L41.9467 34.6146H42.2955C42.6239 34.6146 42.5008 34.879 42.8496 34.879C43.1164 34.879 43.0959 34.7773 43.1164 34.5129L43.3832 34.7163V35.062H43.4242ZM39.402 26.0118L39.5251 26.0525L42.9112 29.4285L42.9728 29.6522L42.6034 29.8353V29.4692L41.7825 29.2861L41.1463 29.5099C40.9616 29.0014 39.8945 28.371 39.1147 28.371H38.5606C37.986 28.371 38.0065 28.7777 37.3703 28.7574L39.3814 26.0118H39.402ZM58.9593 26.0931H59.144L59.0619 26.6423L59.2671 26.805C60.5189 26.805 59.0619 27.4354 60.2522 27.4558L60.5395 28.0049L60.1495 28.554L59.616 28.4523V28.7574C59.616 29.1234 59.8007 29.2048 59.8828 29.5912L59.1235 29.1845L59.4518 28.9811L59.1029 28.3303H59.2055L59.6981 27.5574L59.5955 27.2117C59.3697 27.1507 59.2466 27.0287 59.0619 27.0287C58.5899 27.0287 58.4873 27.7608 58.1384 27.7608H57.5843C57.6254 27.3744 58.1794 26.7439 58.5899 26.7439H58.9593V26.0931ZM40.2228 25.2593C41.4952 24.4051 42.0903 23.7136 43.7321 23.0018C44.8813 22.4934 46.6667 21.8833 48.2674 21.8833H48.8215V27.5574L46.8924 27.9235L47.2208 27.1304H46.8924V27.3744C46.01 27.4558 46.3178 29.2251 45.3328 29.0218L45.1276 29.3675L44.4298 29.4895L40.2228 25.2796V25.2593ZM28.9769 33.4147C28.9769 31.564 30.2287 27.6185 30.9264 26.3982C31.5216 25.3813 31.9115 24.5475 32.5682 23.5509C33.1428 22.6968 34.0252 21.9239 34.5383 21.1308L38.5811 25.1373L38.6427 25.0763C38.6221 25.361 37.1446 27.232 36.8573 27.6795C36.5084 28.1879 36.4673 28.676 35.9543 28.9607C35.5644 29.1845 35.8312 29.2251 35.2976 29.3878C35.0924 29.4488 34.723 29.5302 34.723 29.8353C34.723 29.9573 34.8461 30.0183 34.9898 30.0183C35.2976 30.0183 35.3386 29.9573 35.6259 29.9369C35.3797 30.2624 34.1278 30.5878 33.7995 30.5878H33.4301C33.1018 31.7877 32.1578 31.6453 32.1578 33.8011C32.0346 33.9841 31.6037 34.5332 31.3369 34.5332H28.9563V33.435L28.9769 33.4147ZM55.4911 27.6388L54.5676 28.4726L54.6292 28.9404C54.3213 29.0014 54.0135 29.2048 53.7467 29.2048C53.6852 29.2048 53.0285 28.3913 52.4744 28.3913C51.9819 28.3913 52.0434 28.676 51.7356 28.676H51.3662C51.6945 27.7405 53.0079 28.371 53.0079 26.8456C53.0079 26.7439 52.8232 26.5609 52.6385 26.5609C52.5359 26.5609 51.4072 27.3541 51.3662 27.8422L49.9091 27.5371V26.6423L49.8886 26.1948V24.3644V23.917V23.4493V22.9815V21.8833C51.8587 21.8833 53.3363 22.412 54.7318 23.0018C55.5321 23.3476 58.0563 24.7509 58.241 25.4423L57.6869 25.3203L57.769 25.0559C57.1739 25.1169 56.7634 25.6661 56.312 25.9711L56.394 26.2558L56.0452 26.3575V26.0728L54.6702 26.0321L54.7728 26.5202L55.3269 26.3575C55.409 26.4999 55.6758 27.5981 55.9631 26.8863H56.2299C56.4967 26.8863 56.5787 26.6829 56.6814 26.5202L56.4761 26.2558L56.8455 26.4389L57.297 26.1542C57.1534 26.7439 56.1067 27.4761 55.4706 27.6185L55.4911 27.6388ZM63.9256 21.1714L65.1569 22.4527L65.0748 22.7985C65.6904 23.1442 65.7315 23.1442 66.183 23.8967C66.3882 24.2424 66.9628 24.8932 67.0038 25.361H66.5524V25.7271C66.5524 25.9508 66.4087 25.9915 66.2856 26.1948C66.6755 26.7846 67.8247 26.7236 68.2352 27.7201C68.3993 28.1269 68.5635 28.5743 68.7072 29.0014C68.8713 29.5302 68.7072 29.6929 68.8508 30.3234C68.3788 30.4861 68.071 31.8894 67.4758 31.8894H67.0244C67.0244 31.4419 67.127 31.1979 67.3322 30.8928C67.4758 30.6488 67.4553 30.364 67.4964 29.9573C67.0859 29.7336 66.9012 29.3065 66.4087 29.3065H66.0393C65.5468 29.3065 65.1979 30.4047 64.849 30.4047C64.7054 30.4047 64.6438 30.1607 64.5823 30.0386L65.1364 29.9573V29.5912C65.1364 29.5912 64.1718 29.1438 64.1513 29.1234C63.6998 28.8184 64.0282 28.6353 63.6177 28.2693C63.0636 27.7812 62.3043 27.6591 61.5656 27.6591L60.7447 26.3779L61.2577 26.1948L61.2167 26.0931L60.6831 25.9711L60.601 26.1542L59.8622 25.2796L63.9871 21.1714H63.9256ZM35.3797 20.3173C35.5439 20.2766 37.6166 18.5479 38.068 18.2428C39.0736 17.5717 40.0176 17.1853 41.1053 16.6158C42.8496 15.7413 46.2357 14.9075 48.8215 14.9075V20.7647C46.6051 20.7647 45.066 21.3748 43.4448 21.9646C41.8441 22.5544 40.6948 23.6526 39.402 24.5068L35.3797 20.2969V20.3173ZM22.0405 34.2282C22.0405 30.3234 23.1897 26.4999 24.4415 23.8153C25.3855 21.8222 28.1355 17.348 29.7157 16.2701L33.8611 20.3579C33.2454 21.2731 32.2398 22.168 31.5626 23.2255C30.9059 24.2424 30.2492 25.239 29.7567 26.4592C28.7922 28.8591 27.9097 31.3606 27.9097 34.4926H22.061V34.2078L22.0405 34.2282ZM65.9778 19.1173L66.8602 19.9308L66.9218 20.0529H66.7371L67.2706 20.3783L67.2091 20.0529H67.9273L68.0505 20.6833C68.6661 21.1104 68.0505 21.0087 69.0355 21.4155C69.4049 21.5782 69.7332 21.9443 70.0411 22.1476C70.8209 22.1476 71.1698 22.6154 71.5802 23.0832C71.7033 23.2255 72.6063 24.4051 72.6063 24.4255V24.7102C73.1809 24.8525 73.8171 24.5475 74.2481 24.2424C75.2126 24.9542 76.6286 31.9097 76.6286 34.1265V34.4112H75.0689H74.6995H74.5148H74.0634H73.2425H72.5037H71.1287H70.6772C70.6772 33.3333 69.9795 30.303 71.1287 30.5471V30.181L70.8619 30.2624V29.3472C70.1026 29.3472 69.8769 29.998 69.7127 30.6691C69.5896 31.1572 69.0355 32.1131 69.0355 32.4588V32.8249C69.0355 33.0689 69.0765 33.0689 69.1176 33.2927L69.5691 33.191V34.3909L69.1176 34.4112H68.0299L68.2352 34.1265H67.5785L67.6811 34.3909H66.9423L66.4908 34.4112H66.1214H65.4852L66.655 33.7197L66.5729 32.9469C66.5524 32.6622 68.071 32.4791 68.4198 32.4791C68.9329 31.5029 69.8769 30.9132 69.8769 29.4488L70.3284 29.2455C70.3284 29.0014 70.3284 28.8997 70.0616 28.8997H69.7948V28.7167H70.0616V28.432C70.0616 28.1269 69.8974 28.1676 69.6101 28.1472V26.9473C69.3638 26.6016 69.1381 25.3813 68.6866 25.3813H68.4198C68.3378 25.0559 68.2352 25.0763 68.2352 24.7305C68.2352 24.5678 68.4404 24.5068 68.6045 24.4458V23.978L67.9684 24.0594C68.071 23.8967 68.1531 23.795 68.1531 23.5306C68.1531 23.4899 68.0299 23.3272 67.9684 23.2459C67.7631 23.2866 67.7632 23.3272 67.5169 23.3272H67.2501L66.8397 22.6561L66.9012 22.046L66.5113 21.9239C66.2035 20.663 65.4031 21.5375 65.4031 20.2969L65.1158 19.9105L66.0393 18.9953L65.9778 19.1173ZM61.6887 17.7751L59.6365 16.4531L59.6981 16.3718H60.0675C60.6421 16.3718 60.6626 16.5345 60.9909 16.7378V16.5548H61.1756L61.7092 17.7751H61.6887ZM49.9091 20.785V19.1377V18.7716V18.5886V18.1208V17.7547V17.287V16.0057L49.9297 15.5379V14.8871H50.3811C52.9259 14.8871 55.881 15.904 57.728 16.6972C59.0414 17.2463 62.5301 19.4021 63.1868 20.3783C62.92 20.785 59.2055 24.5068 58.9798 24.5068C58.8977 24.5068 57.4407 23.2459 57.1123 23.0628C56.5172 22.7171 55.6963 22.168 55.0601 21.9239C53.7673 21.4155 51.4688 20.7444 50.1965 20.7444H49.9297L49.9091 20.785ZM69.7538 15.4769C69.7538 15.2532 73.3861 11.6331 73.7761 11.3484C74.6995 11.9788 76.7928 14.7448 77.5521 15.8023C78.5987 17.2463 79.7889 19.3817 80.5277 21.0494C82.149 24.7915 83.565 29.1438 83.565 34.4926L82.4773 34.4112H81.7385L81.287 34.4316H80.5483H80.0968H79.0091H78.2703H78.1882H77.6342C77.6342 30.5267 76.4028 25.8694 75.0689 23.3476L75.4588 23.0018C75.3562 21.9036 74.679 21.5172 74.2481 20.8867C73.9197 20.419 73.3451 19.219 72.8731 18.9546C72.1343 18.5479 71.806 17.5717 71.3134 17.2056C70.9646 16.9616 69.7538 16.026 69.7538 15.5583V15.4769ZM15.2683 34.5129C14.509 34.5129 15.8224 27.9439 15.925 27.3744C16.2328 25.4627 17.341 22.8188 18.0592 21.1714C18.9006 19.1987 19.9473 17.5513 21.076 15.8633C21.7942 14.7854 23.949 11.9585 24.8725 11.3484C25.3445 12.0602 28.8948 15.1108 28.8948 15.5583C28.8948 15.5583 27.4788 17.1243 27.2941 17.348C26.8016 17.9988 26.3706 18.5886 25.8781 19.2394C24.893 20.5613 24.2363 21.8833 23.477 23.4086C22.2662 25.8084 20.9323 30.4657 20.9323 34.0451V34.4926H15.2683V34.5129ZM30.4339 15.4769C30.947 15.1312 31.6037 14.4397 32.2193 13.9719C32.835 13.5245 33.4506 13.0771 34.0663 12.6093C35.1745 11.7551 36.8778 10.962 38.2527 10.3112C40.818 9.09091 45.066 7.97234 48.801 7.97234V13.9313H48.3495C45.6611 13.9313 42.2135 14.8668 40.4281 15.8023C39.2583 16.3921 38.3143 16.8395 37.2472 17.5717C36.2826 18.2225 35.3797 19.158 34.5383 19.7071L30.4339 15.4973V15.4769ZM49.9297 10.7993L50.5453 10.4942L50.4632 10.1688H50.1965C49.7244 10.1688 49.9091 8.21639 49.9297 7.97234C53.952 8.05369 58.3847 9.1926 61.2577 10.7179C61.1346 10.9823 61.2577 10.9213 61.032 11.1247C60.8883 11.2874 60.7036 11.3077 60.7036 11.4501C60.7036 11.6534 60.7447 11.5721 60.7857 11.8161L61.0525 11.6331C61.2167 12.0805 61.7913 12.0602 62.1607 12.9144C62.3249 13.3008 62.1607 13.4838 62.3864 13.8702C62.5711 14.1956 62.7148 14.094 62.9816 14.4804L62.8789 15.4769C62.8789 15.4769 63.1457 15.8633 63.2073 16.087C63.2689 16.3108 63.2894 16.6362 63.351 16.8599H63.7203C64.3155 16.8599 64.2129 16.3921 64.808 16.3921C65.3416 16.3921 65.8957 17.2259 65.8957 17.8564L64.4386 19.158L64.1103 18.7106L64.6028 18.5682L64.5207 18.1411H64.2539V18.3242H64.0692C63.823 17.4293 63.6383 17.0836 62.8789 16.6768L62.4275 16.7785C62.3249 16.4124 61.1962 14.9278 60.8678 14.9278C60.7242 14.9278 60.601 14.9888 60.601 15.1108C60.601 15.2532 61.1962 16.1481 61.3398 16.3921H60.9704L60.601 15.782L60.4369 15.2939H60.1495C59.8828 15.2939 59.9854 15.3142 59.8828 15.4769L60.2316 15.7006V15.843L59.6981 15.6803L59.4313 15.7616V16.026H59.2466L59.144 15.66H58.8772L58.7746 16.026C58.241 15.904 57.4407 15.4362 56.8661 15.2125C56.1683 14.9685 55.45 14.7854 54.7523 14.5821C53.3568 14.155 51.6945 13.9313 49.9091 13.9313V10.8196L49.9297 10.7993ZM25.5908 10.6162C26.1449 9.80272 29.1205 7.58593 30.0645 6.95546C31.8294 5.77588 33.307 5.02339 35.2976 4.04718C38.2117 2.60321 44.2656 1.01688 48.2674 1.01688H48.8215V6.9758H48.0006C44.2862 6.9758 40.0381 8.35875 37.4729 9.518C36.2006 10.1078 34.3536 11.0433 33.307 11.8365C32.6913 12.3042 31.9731 12.7517 31.4395 13.2601C31.1727 13.5245 29.9414 14.6024 29.7157 14.7448L25.6113 10.6162H25.5908ZM54.5676 5.22676C55.1833 5.18609 55.881 5.16575 56.312 4.96237C56.1683 4.4336 55.3885 4.12853 54.7523 4.12853H54.5676C54.4445 4.12853 52.7001 4.86069 52.5565 4.86069H52.1871V5.04373L51.5509 4.84035L49.9091 5.51149V4.12853L49.8886 3.68111V2.84726L49.9091 2.3795V1.09823H50.73C54.9575 1.09823 60.7652 2.7049 63.5972 4.14887C65.5468 5.14541 66.9218 5.85723 68.6661 7.03681C69.6101 7.66728 72.5037 9.8434 73.0373 10.6162L69.5896 14.0329L69.3638 14.094C69.2202 13.5855 68.8098 13.5855 68.3583 13.2601L68.2557 12.3449C67.7426 12.2026 67.4964 11.4704 67.0038 11.1247C66.1419 10.5552 66.3266 11.1247 65.6084 10.0468C66.0804 10.1688 66.0804 10.5959 66.4292 10.5959H66.696C66.7371 10.2298 66.7781 10.3925 66.7781 10.0468C66.7781 9.82306 66.3266 9.33496 66.1419 9.21293C65.6904 8.94854 65.5673 9.13158 64.9517 9.13158C64.8901 9.39597 64.8696 9.29428 64.8696 9.49766C64.8696 9.61969 65.321 9.96542 65.4237 10.0468C65.1569 10.1078 65.2595 10.1281 65.0543 10.1281C64.7464 10.1281 64.5002 9.76205 64.0487 9.76205C63.5972 9.76205 62.7969 10.1281 62.6737 10.1281C62.5096 10.1281 58.2821 8.25707 57.1944 8.01301C55.3474 7.58593 53.0695 6.91478 50.7916 6.91478H49.8681V6.46736V6.10128C50.258 6.10128 50.4427 5.97925 50.7095 6.08094C51.0789 6.22331 51.0173 6.46736 51.3252 6.46736C51.5099 6.46736 51.4483 6.42668 51.6945 6.38601L52.0845 6.83343L52.9874 6.95546C52.9259 6.30466 52.3512 6.63006 52.3512 6.04027C52.3512 5.83689 52.3923 5.91824 52.4333 5.67419L52.0229 5.34879C52.146 5.34879 52.9874 5.67419 52.9874 5.67419C53.1106 5.67419 54.034 5.2471 54.5471 5.20643L54.5676 5.22676ZM50.9147 0H47.7133C47.5902 0.0813504 44.3888 0.305064 43.8962 0.386414C42.9522 0.528778 41.3105 0.854179 40.346 1.13891C38.1912 1.74903 35.9133 2.52186 34.0663 3.45739C30.2082 5.4098 26.8836 7.66728 24.0106 10.5959C18.8391 15.8633 13.9754 24.4458 13.9754 34.879V35.6111C13.9754 40.8786 15.453 45.6783 17.1152 49.5017C17.8951 51.2914 19.1469 53.4879 20.2346 54.9929C21.2812 56.4165 22.8614 58.5926 24.1132 59.7112C26.9042 62.1924 30.4134 65.4057 34.1689 66.8497C35.0924 67.2158 36.0979 67.8056 37.1651 68.1513C38.2938 68.5174 39.2583 68.8021 40.4486 69.1682C42.1724 69.6766 45.9279 70.3274 47.7954 70.3274H50.73C55.3269 70.3274 61.3603 68.436 64.4797 66.87C68.6456 64.7753 71.416 62.7618 74.5354 59.6298C77.4289 56.7216 79.7479 53.3252 81.5538 49.3594C82.5594 47.1222 82.9698 45.4139 83.7291 42.9327C83.9959 42.0582 84.2627 40.2684 84.3653 39.2719C84.5295 37.8483 84.4474 36.5873 84.5705 35.062C84.9399 30.2827 83.1135 24.6085 81.6975 21.0901C80.1994 17.3683 77.3263 13.4025 74.7201 10.7789C71.5392 7.60626 68.9329 5.63352 64.7054 3.5184C63.1457 2.72524 60.2932 1.566 58.4462 1.19992C57.3381 0.976205 56.1067 0.691478 54.937 0.42709C54.3624 0.284726 51.0994 0.122026 50.9558 0.0203376L50.9147 0Z" fill="#009EDB"/>
<path fill-rule="evenodd" clip-rule="evenodd" d="M22.0405 52.532C22.02 52.1863 21.7532 51.5355 21.4864 51.5355C21.3633 51.5355 21.2606 51.7185 21.2196 51.8202C21.3427 52.0642 21.4659 52.5523 21.7737 52.5523H22.0405V52.532Z" fill="#009EDB"/>
<path fill-rule="evenodd" clip-rule="evenodd" d="M43.9783 57.1283C44.163 57.1283 44.3477 57.1283 44.3477 56.9453C44.3477 56.8029 44.2861 56.6606 44.163 56.6606C43.9578 56.6606 43.9783 56.9046 43.9783 57.1283Z" fill="#009EDB"/>
<path fill-rule="evenodd" clip-rule="evenodd" d="M46.8103 59.4061C46.8103 59.5485 46.8719 59.6909 46.995 59.6909C47.3028 59.6909 47.2618 59.5282 47.2618 59.2231C47.0566 59.2231 46.8103 59.2028 46.8103 59.4061Z" fill="#009EDB"/>
<path fill-rule="evenodd" clip-rule="evenodd" d="M28.7101 61.2365C28.7101 61.5212 29.531 62.172 29.7977 62.2534V61.8873C29.7977 61.6636 29.2026 61.0535 28.9769 61.0535C28.8332 61.0535 28.7101 61.1145 28.7101 61.2365Z" fill="#009EDB"/>
<path fill-rule="evenodd" clip-rule="evenodd" d="M77.1621 68.5581L81.0613 67.4802L81.1023 67.5819L81.3691 67.3785C82.5594 67.3785 86.0481 66.0159 86.8895 65.4871C88.6954 64.3685 89.4547 63.5143 90.8502 62.05C92.574 60.2197 95.2829 55.0336 95.3445 51.6372C94.8109 52.2473 94.3389 53.2032 93.7232 53.9557C93.046 54.7692 92.5945 55.2573 91.8557 56.0098C90.5423 57.3317 89.0648 58.552 87.5462 59.6502C86.1302 60.6874 84.4268 61.9687 83.2161 63.1889C82.6825 63.7381 79.5221 66.8904 79.0706 67.0124C79.3785 66.565 79.9941 66.0159 80.384 65.4871C80.815 64.8973 81.2049 64.3889 81.6154 63.7787C82.3131 62.7008 83.0929 61.2569 83.4828 59.8739C83.7907 58.7757 83.5855 58.4503 83.7496 57.3114C83.8522 56.7012 84.078 55.3386 84.0985 54.7285C84.1601 52.9185 84.3653 51.1491 84.3653 49.1357C84.3653 48.8916 84.3242 48.8916 84.2832 48.6882C83.9754 49.0543 82.4567 52.349 82.0258 53.1218C81.2049 54.6065 80.4661 56.0708 79.7068 57.5758C79.0912 58.796 78.5166 61.3179 78.3524 62.9856C78.2703 63.8194 78.2087 65.3244 78.024 66.0362C77.7778 66.9311 77.3263 67.9073 77.1621 68.5581Z" fill="#009EDB"/>
<path fill-rule="evenodd" clip-rule="evenodd" d="M19.1058 66.7276C17.7309 65.8125 16.397 64.0431 15.063 62.9855C14.3448 62.4364 13.7907 61.7449 13.0314 61.1755C12.2721 60.606 11.5538 60.0569 10.7945 59.4671C9.21431 58.2672 8.00352 57.2707 6.60804 55.8877C5.86925 55.1555 5.37673 54.6674 4.74055 53.8336C4.51481 53.5489 3.13985 51.5355 3.11932 51.5151C3.40663 52.7964 3.59133 53.9353 3.91968 55.0945C4.18646 56.0911 4.74055 57.3317 5.19203 58.2265C6.21812 60.2806 7.40839 61.8059 8.94753 63.3516C10.5277 64.9379 12.0668 65.8328 14.4269 66.6463C15.494 67.0124 16.9305 67.1751 17.9156 67.5411C18.7159 67.8462 20.5424 68.3343 21.4043 68.5377C21.2606 67.8869 20.6245 66.7683 20.5013 66.0565C20.3371 65.06 20.3577 63.9821 20.173 62.9855C19.7625 60.728 19.5984 59.4671 18.798 57.5757C18.1208 55.9894 17.2999 54.6064 16.5201 53.0811C16.1507 52.3693 14.4474 48.8916 14.1806 48.5662C14.1806 50.5592 14.2216 52.3286 14.3653 54.159C14.4679 55.603 14.6731 57.9418 14.9194 59.3858C15.1041 60.484 16.1507 62.5584 16.7048 63.3719C16.9921 63.799 19.1264 66.687 19.1264 66.7073L19.1058 66.7276Z" fill="#009EDB"/>
<path fill-rule="evenodd" clip-rule="evenodd" d="M65.7314 73.317V73.5001C66.7781 73.5814 68.1735 74.0899 69.2202 74.2322C70.2668 74.3542 71.7238 74.639 72.8115 74.8423C75.2125 75.3304 78.2908 74.4153 80.0352 73.8051C81.7385 73.2153 84.2011 71.7307 85.3298 70.5918C86.2738 69.6563 88.757 67.1141 89.0443 65.8125C85.7608 68.0089 83.5854 68.5987 79.44 69.819C77.6957 70.3274 75.7256 70.5918 74.0223 71.1612C73.0372 71.4866 69.5485 72.6866 68.7687 72.7476C69.056 72.5035 70.3283 72.0561 70.8003 71.751C71.3544 71.4053 72.2369 70.9375 72.6883 70.5104C74.0017 69.2698 74.5764 68.9648 75.4793 67.1751C76.2386 65.6701 76.608 64.4092 77.2442 62.8025C77.4494 62.2737 78.5576 58.3486 78.5576 57.9011C77.8188 58.4096 72.5447 64.2668 71.8059 65.243C70.8824 66.4836 69.7948 68.1716 69.1586 69.6359C68.6456 70.8155 67.0654 72.9916 65.7725 73.2764L65.7314 73.317Z" fill="#009EDB"/>
<path fill-rule="evenodd" clip-rule="evenodd" d="M29.5309 72.6866C27.7661 72.2798 26.1654 71.6494 24.421 71.1206C22.7587 70.6122 20.686 70.2258 19.0032 69.7783C17.1358 69.2902 15.535 68.8428 13.8523 68.1717C13.0724 67.8666 12.2516 67.4802 11.5538 67.0938C11.1434 66.87 9.6658 65.8938 9.44006 65.8328C11.3486 68.7004 11.9642 69.7376 14.7757 71.8324C16.3354 72.9917 20.4603 74.8831 23.0666 74.8831H24.8109C25.9807 74.8831 32.5477 73.7442 32.8555 73.3171C31.419 72.9917 30.1056 70.9172 29.4489 69.6766C28.5049 67.9479 27.9097 66.748 26.7605 65.2227C25.837 64.0024 24.462 62.6805 23.4154 61.5213C22.6561 60.6874 20.7476 58.3486 19.9678 57.8401C20.7886 61.3992 21.6916 63.9211 23.005 66.9717C23.6822 68.5377 24.5031 69.3716 25.7344 70.3681C26.3911 70.8969 26.8015 71.1409 27.5198 71.5884C27.9097 71.8324 29.3873 72.4425 29.5515 72.6663L29.5309 72.6866Z" fill="#009EDB"/>
<path fill-rule="evenodd" clip-rule="evenodd" d="M38.2116 84.8485H38.3963C39.484 83.2214 41.4336 81.1267 43.0137 79.9674C44.3887 78.9505 47.2823 76.9981 49.314 76.7744C49.827 76.7134 52.2075 77.7506 52.6795 78.0557C53.8082 78.7472 54.5265 79.1336 55.5526 79.9471C56.5376 80.7199 57.1738 81.3097 58.0563 82.2046C58.3025 82.4486 60.1905 84.7874 60.2316 84.7874C61.0114 84.7874 61.3603 84.34 62.058 84.3197C61.4424 83.1604 58.2615 80.4962 57.0507 79.7234C56.0246 79.0726 55.1832 78.5438 54.0545 77.9743C53.6441 77.771 50.812 76.5507 50.73 76.449C52.6385 76.449 53.4799 76.2863 55.2653 76.9371C56.6403 77.4252 58.0152 77.893 59.3491 78.3404C62.1401 79.276 64.7874 80.2115 68.4608 80.2115C73.3656 80.2115 79.5631 79.0116 81.4512 76.1846C81.1844 76.205 79.4605 76.7948 78.9885 76.9371C78.6602 77.0388 76.5875 77.3032 76.136 77.2829C75.8077 77.2829 73.776 77.1405 73.3861 77.0185C72.9962 76.8964 71.1082 76.5304 70.7388 76.4694C69.097 76.205 67.2706 75.5338 65.6288 75.1881C63.8229 74.8017 61.9759 74.5373 59.7801 74.5373H58.4051C56.8044 74.5373 55.0806 74.8627 53.7262 75.0661C52.0023 75.3101 50.8941 75.7779 49.4987 76.0423C49.1703 76.1033 46.2357 75.1678 45.3327 75.1067C43.8346 74.9847 42.4186 74.5576 40.6743 74.5576H37.1035C34.7024 74.5576 31.9935 75.5338 29.9003 75.9609C27.4377 76.449 25.7138 77.2219 22.574 77.2219C21.3222 77.2219 20.6039 77.0795 19.6804 76.9168C18.7569 76.7744 17.9361 76.3067 17.0947 76.1236C19.0442 79.0319 25.406 80.2522 30.1671 80.2522C32.7323 80.2522 35.5438 79.6014 37.5344 78.9302C38.3758 78.6455 43.7731 76.8761 44.0604 76.6931L46.1536 76.4083H46.7898L47.98 76.4897C47.7953 76.6524 45.2096 77.6896 44.6965 77.954C43.6089 78.5031 42.6444 79.0726 41.6388 79.7437C40.428 80.5572 37.165 83.2011 36.5699 84.34L38.2116 84.9095V84.8485Z" fill="#009EDB"/>
<path d="M129.821 27.2727H139.261V45.3732C139.261 47.1629 138.974 48.8509 138.42 50.4576C137.866 52.0439 136.983 53.4472 135.773 54.6471C134.562 55.847 133.31 56.6809 131.996 57.169C130.17 57.8401 127.954 58.1859 125.388 58.1859C123.911 58.1859 122.269 58.0842 120.525 57.8808C118.76 57.6774 117.303 57.2707 116.113 56.6605C114.922 56.0504 113.855 55.1759 112.87 54.037C111.885 52.8981 111.228 51.7388 110.859 50.5389C110.284 48.6069 109.977 46.8985 109.977 45.4138V27.3134H119.417V45.8613C119.417 47.529 119.889 48.8102 120.792 49.7458C121.715 50.6813 122.987 51.1491 124.65 51.1491C126.312 51.1491 127.543 50.6813 128.487 49.7661C129.411 48.8509 129.862 47.5493 129.862 45.8613V27.3134L129.821 27.2727Z" fill="#009EDB"/>
<path d="M147.839 27.2727H156.664L168.176 44.0716V27.2727H177.083V57.6367H168.176L156.725 40.9599V57.6367H147.839V27.2727Z" fill="#009EDB"/>
<path d="M185.62 27.2727H210.923V33.7604H195.081V38.5804H209.774V44.7834H195.081V50.7626H211.395V57.6367H185.62V27.2727Z" fill="#009EDB"/>
<path d="M239.1 45.2308L247.37 47.712C246.816 50.0101 245.934 51.9422 244.744 53.4878C243.553 55.0335 242.055 56.2131 240.29 56.9859C238.525 57.7791 236.268 58.1655 233.539 58.1655C230.214 58.1655 227.505 57.6774 225.391 56.7215C223.278 55.7657 221.472 54.0776 219.933 51.6575C218.414 49.2373 217.634 46.146 217.634 42.3835C217.634 37.3601 218.989 33.496 221.677 30.7911C224.365 28.0862 228.182 26.7439 233.087 26.7439C236.945 26.7439 239.962 27.5167 242.178 29.0624C244.374 30.608 246.016 32.9875 247.083 36.1805L238.751 38.0313C238.464 37.0957 238.156 36.4246 237.828 35.9975C237.294 35.2857 236.658 34.7366 235.899 34.3502C235.139 33.9637 234.277 33.7604 233.333 33.7604C231.199 33.7604 229.557 34.6146 228.408 36.3229C227.546 37.6042 227.115 39.5973 227.115 42.3022C227.115 45.6782 227.628 47.9764 228.654 49.2373C229.68 50.4982 231.138 51.1083 232.984 51.1083C234.831 51.1083 236.165 50.5999 237.089 49.6034C238.012 48.6068 238.69 47.1425 239.1 45.2104V45.2308Z" fill="#009EDB"/>
<path d="M254.225 27.2727H279.528V33.7604H263.685V38.5804H278.379V44.7834H263.685V50.7626H280V57.6367H254.225V27.2727Z" fill="#009EDB"/>
</g>
<defs>
<clipPath id="clip0_1230_13414">
<rect width="280" height="84.8485" fill="white"/>
</clipPath>
</defs>
</svg>
